<?xml version="1.0" encoding="iso-8859-1"?>
<!-- Generator: Adobe Illustrator 19.0.0, SVG Export Plug-In . SVG Version: 6.00 Build 0)  -->
<svg version="1.1" id="Capa_1" xmlns="http://www.w3.org/2000/svg" xmlns:xlink="http://www.w3.org/1999/xlink" x="0px" y="0px"
	 viewBox="0 0 506.283 506.283" style="enable-background:new 0 0 506.283 506.283;" xml:space="preserve">
<g>
	<path style="fill:#7E5C62;" d="M237.142,498.283c0,4.418,3.582,8,8,8h16c4.418,0,8-3.582,8-8v-72h-32V498.283z"/>
	<polygon style="fill:#53C351;" points="222.185,141.218 222.185,141.218 223.065,138.632 202.841,198.04 202.842,198.04 	"/>
	<path style="fill:#53C351;" d="M225.64,234.936c6.645,1.945,11.501,8.074,11.501,15.347c0,8.836-7.164,16-16,16
		c-0.057,0-0.112-0.008-0.169-0.009l-2.485,16.684l127.908,41.26l-24.116-70.841l-94.831-30.59L225.64,234.936z M289.142,258.283
		c6.627,0,12,5.373,12,12s-5.373,12-12,12s-12-5.373-12-12S282.514,258.283,289.142,258.283z"/>
	<path style="fill:#53C351;" d="M131.774,424.875c-0.51-0.353-0.974-0.763-1.386-1.218
		C130.8,424.112,131.265,424.523,131.774,424.875z"/>
	<path style="fill:#53C351;" d="M369.967,426.283L369.967,426.283c3.769,0,6.77-2.547,7.704-5.825
		C376.737,423.736,373.736,426.283,369.967,426.283z"/>
	<path style="fill:#53C351;" d="M249.857,72.338l-8.668,58.202l44.119,14.232l6.428,18.883L238.8,146.578l-8.961,60.171l0,0l0,0
		l86.013,27.746L261.55,74.984l-8.363-4.397L249.857,72.338z M265.142,194.283c-6.627,0-12-5.373-12-12s5.373-12,12-12
		s12,5.373,12,12S271.769,194.283,265.142,194.283z"/>
	<polygon style="fill:#53C351;" points="173.186,285.154 173.186,285.154 174.075,282.541 174.32,281.823 197.685,213.187 
		197.685,213.187 153.842,341.976 153.842,341.976 	"/>
	<path style="fill:#53C351;" d="M377.807,416.679c0.135,0.649,0.186,1.295,0.16,1.929
		C377.993,417.975,377.942,417.328,377.807,416.679z"/>
	<polygon style="fill:#53C351;" points="148.686,357.123 128.743,415.705 148.686,357.123 	"/>
	<path style="fill:#53C351;" d="M134.344,426.042c-0.627-0.158-1.22-0.388-1.773-0.681
		C133.124,425.653,133.717,425.884,134.344,426.042z"/>
	<path style="fill:#53C351;" d="M136.316,426.283L136.316,426.283c-0.685,0-1.345-0.084-1.972-0.242
		C134.971,426.199,135.631,426.283,136.316,426.283z"/>
	<path style="fill:#53C351;" d="M207.138,359.168L207.138,359.168L207.138,359.168l169.803,54.775l0.6,1.762l-24.716-72.604
		l-136.725-44.104L207.138,359.168z M329.142,354.283c6.627,0,12,5.373,12,12s-5.373,12-12,12s-12-5.373-12-12
		S322.514,354.283,329.142,354.283z M261.142,330.283c8.836,0,16,7.164,16,16s-7.164,16-16,16s-16-7.164-16-16
		S252.305,330.283,261.142,330.283z"/>
	<rect x="236.027" y="73.604" style="fill:#53C351;" width="0" height="53.907"/>
	<polygon style="fill:#53C351;" points="204.749,375.207 197.142,426.283 237.142,426.283 269.142,426.283 363.087,426.283 	"/>
	<path style="fill:#21AB7C;" d="M218.488,282.959l2.485-16.684c-8.758-0.091-15.831-7.212-15.831-15.991c0-8.836,7.164-16,16-16
		c1.563,0,3.07,0.234,4.499,0.653l1.809-12.148l-29.764-9.601l-23.365,68.636l4.022-11.814L218.488,282.959z"/>
	<polygon style="fill:#21AB7C;" points="222.185,141.218 202.842,198.04 229.838,206.749 238.8,146.578 	"/>
	<polygon style="fill:#21AB7C;" points="173.186,285.154 153.842,341.976 207.138,359.168 216.099,298.997 	"/>
	<polygon style="fill:#21AB7C;" points="241.189,130.539 241.189,130.539 241.189,130.539 249.857,72.338 244.713,75.042 
		227.341,126.072 227.341,126.072 227.341,126.072 	"/>
	<path style="fill:#21AB7C;" d="M131.774,424.875c0.255,0.176,0.521,0.338,0.797,0.485c0.552,0.293,1.146,0.523,1.773,0.681
		c0.626,0.158,1.286,0.242,1.972,0.242h60.826l7.607-51.076l-56.063-18.084l-19.943,58.583c-0.994,2.919-0.208,5.901,1.646,7.952
		C130.8,424.112,131.265,424.523,131.774,424.875z M169.142,386.283c6.627,0,12,5.373,12,12s-5.373,12-12,12s-12-5.373-12-12
		S162.514,386.283,169.142,386.283z"/>
	<path style="fill:#FFB400;" d="M249.857,72.338l3.33-1.751l8.363,4.397l12.766,6.711c3.686,1.938,7.993-1.192,7.289-5.296
		l-4.035-23.528l17.094-16.663c2.982-2.906,1.336-7.97-2.784-8.569l-23.624-3.433L257.692,2.8c-1.843-3.734-7.167-3.734-9.01,0
		l-10.565,21.407l-23.623,3.433c-4.121,0.599-5.766,5.663-2.784,8.569l17.094,16.663l-4.035,23.528
		c-0.704,4.104,3.604,7.234,7.289,5.296l12.656-6.653l0,0L249.857,72.338z"/>
	<path style="fill:#FFFFFF;" d="M204.749,375.207l158.338,51.076h6.88c3.769,0,6.77-2.547,7.704-5.825
		c0.17-0.596,0.271-1.216,0.296-1.85c0.025-0.634-0.026-1.28-0.16-1.929c-0.068-0.325-0.156-0.65-0.266-0.974l-0.6-1.762
		l-169.803-54.775L204.749,375.207l-56.063-18.084l0,0l0,0L204.749,375.207z"/>
	<polygon style="fill:#FFFFFF;" points="227.341,126.072 227.341,126.072 227.341,126.072 227.341,126.072 223.065,138.632 
		222.185,141.218 	"/>
	<polygon style="fill:#FFFFFF;" points="291.736,163.654 285.308,144.771 241.189,130.539 241.189,130.539 238.8,146.578 
		222.185,141.218 222.185,141.218 238.8,146.578 	"/>
	<polygon style="fill:#FFFFFF;" points="227.45,222.788 322.28,253.378 322.28,253.378 315.852,234.495 315.852,234.495 
		229.838,206.749 227.449,222.788 197.685,213.187 197.685,213.187 197.685,213.187 	"/>
	<polygon style="fill:#FFFFFF;" points="178.342,270.008 218.488,282.959 216.099,298.997 173.186,285.154 173.186,285.154 
		216.099,298.997 352.825,343.102 352.825,343.102 346.397,324.219 346.396,324.219 218.488,282.959 	"/>
	<polygon style="fill:#FFB400;" points="238.8,146.578 241.189,130.539 241.189,130.539 227.341,126.072 227.341,126.072 
		222.185,141.218 	"/>
	<polygon style="fill:#FFB400;" points="227.449,222.788 229.838,206.749 229.838,206.749 229.838,206.749 202.842,198.04 
		202.841,198.04 202.841,198.04 197.685,213.187 	"/>
	<polygon style="fill:#FFB400;" points="216.099,298.997 218.488,282.959 178.342,270.008 174.32,281.823 174.075,282.541 
		173.186,285.154 	"/>
	<polygon style="fill:#FFB400;" points="204.749,375.207 207.138,359.168 207.138,359.168 207.138,359.168 153.842,341.976 
		153.842,341.976 153.842,341.976 148.686,357.123 	"/>
	<circle style="fill:#FFB400;" cx="261.142" cy="346.283" r="16"/>
	<path style="fill:#FF4F19;" d="M205.142,250.283c0,8.779,7.073,15.9,15.831,15.991c0.057,0.001,0.112,0.009,0.169,0.009
		c8.836,0,16-7.164,16-16c0-7.273-4.857-13.402-11.501-15.347c-1.428-0.418-2.935-0.653-4.499-0.653
		C212.305,234.283,205.142,241.447,205.142,250.283z"/>
	<circle style="fill:#00D8FF;" cx="169.142" cy="398.283" r="12"/>
	<circle style="fill:#FFFFFF;" cx="289.142" cy="270.283" r="12"/>
	<circle style="fill:#FF4F19;" cx="329.142" cy="366.283" r="12"/>
	<circle style="fill:#00D8FF;" cx="265.142" cy="182.283" r="12"/>
</g>
<g>
</g>
<g>
</g>
<g>
</g>
<g>
</g>
<g>
</g>
<g>
</g>
<g>
</g>
<g>
</g>
<g>
</g>
<g>
</g>
<g>
</g>
<g>
</g>
<g>
</g>
<g>
</g>
<g>
</g>
</svg>
